<svg fill="none" height="26" viewBox="0 0 126 26" width="126" xmlns="http://www.w3.org/2000/svg">
<path d="M3.89594 13C3.89391 11.6729 4.17892 10.3611 4.73143 9.15449C5.28394 7.94789 6.09088 6.87505 7.0969 6.00956L10.4649 9.32317L6.7939 12.9942L9.45294 15.659L9.55006 15.5619L15.6878 9.42417L15.783 9.329L10.5931 4.12939C11.189 3.95826 11.8007 3.84827 12.4189 3.80114V0C9.07392 0.153023 5.91666 1.5895 3.60368 4.01072C1.2907 6.43194 0 9.65154 0 13C0 16.3485 1.2907 19.5681 3.60368 21.9893C5.91666 24.4105 9.07392 25.847 12.4189 26V22.1969C10.1008 22.0197 7.93515 20.974 6.35495 19.2688C4.77474 17.5637 3.89653 15.3248 3.89594 13Z" fill="#040000"></path>
<path d="M13.8406 0V3.80308C15.6569 3.94499 17.3905 4.62156 18.8227 5.74747C20.255 6.87338 21.3218 8.3982 21.8885 10.1296C22.4553 11.861 22.4966 13.7215 22.0073 15.4764C21.5181 17.2313 20.5201 18.802 19.1393 19.9904L15.7829 16.6729L19.4559 13L16.7968 10.341L10.4648 16.6729L15.6645 21.8726C15.069 22.0426 14.458 22.1526 13.8406 22.2008V26C17.1856 25.847 20.3428 24.4105 22.6558 21.9893C24.9688 19.5681 26.2595 16.3485 26.2595 13C26.2595 9.65154 24.9688 6.43194 22.6558 4.01072C20.3428 1.58951 17.1856 0.153023 13.8406 0Z" fill="#040000"></path>
<path d="M48.253 7.21387C46.7184 7.21387 45.2467 7.82348 44.1615 8.9086C43.0764 9.99373 42.4668 11.4655 42.4668 13.0001C42.4668 14.5347 43.0764 16.0064 44.1615 17.0915C45.2467 18.1766 46.7184 18.7863 48.253 18.7863C48.3559 18.7863 48.4569 18.7863 48.556 18.7863C48.9422 18.7659 49.3254 18.7074 49.7 18.6114C51.0647 18.2603 52.2543 17.4231 53.0457 16.2571C53.837 15.0912 54.1756 13.6765 53.998 12.2786C53.8204 10.8807 53.1388 9.5956 52.0811 8.66454C51.0233 7.73348 49.6621 7.22042 48.253 7.22164V7.21387ZM48.9619 15.7426C48.7785 15.7887 48.5913 15.818 48.4026 15.83H48.253C47.5339 15.8291 46.8422 15.5543 46.3186 15.0615C45.7949 14.5687 45.4787 13.895 45.4341 13.1773C45.3895 12.4596 45.62 11.7519 46.0786 11.1982C46.5373 10.6444 47.1897 10.2861 47.9031 10.1962C48.6165 10.1063 49.3374 10.2915 49.9191 10.7142C50.5008 11.1368 50.8996 11.7652 51.0345 12.4715C51.1694 13.1778 51.0302 13.9089 50.6452 14.5162C50.2602 15.1235 49.6583 15.5614 48.9619 15.7407V15.7426Z" fill="#040000"></path>
<path d="M31.3755 18.7863V7.21387H34.3298V11.5647H38.1115V7.21387H41.0677V18.7863H38.1134V14.1596H34.3317V18.7863H31.3755Z" fill="#040000"></path>
<path d="M55.4375 7.21387H58.3937V16.1894H62.6338V18.7863H55.4375V7.21387Z" fill="#040000"></path>
<path d="M64.0361 7.21387H66.9924V16.1894H71.2325V18.7863H64.0361V7.21387Z" fill="#040000"></path>
<path d="M82.459 7.21387H85.4152V16.1894H89.6553V18.7863H82.459V7.21387Z" fill="#040000"></path>
<path d="M74.6683 14.3616L71.481 7.21387H74.4372L76.1484 11.0461L77.8965 7.21387H80.8469L77.6265 14.3616V18.7863H74.6683V14.3616Z" fill="#040000"></path>
<path d="M110.843 14.2665V7.21387H113.797V18.7863H110.843L106.995 11.8114V18.7863H104.041V7.21387H106.995L110.843 14.2665Z" fill="#040000"></path>
<path d="M99.6821 18.7863H102.636L98.1923 7.21387H95.51L91.0659 18.7863H94.0299L94.7913 16.8051H98.9207L99.6821 18.7863ZM95.7858 14.214L96.8521 11.4171L97.9262 14.214H95.7858Z" fill="#040000"></path>
<path d="M123.392 7.21582H115.714V18.7863H123.392L125.462 16.7041V9.28828L123.392 7.21582ZM122.51 15.5795L121.889 16.1991H118.664V9.80106H121.889L122.508 10.4207L122.51 15.5795Z" fill="#040000"></path>
</svg>